<?xml version="1.0" encoding="UTF-8"?><svg xmlns="http://www.w3.org/2000/svg" viewBox="0 0 1024 1024"><g style="isolation:isolate;"><g id="a"><g id="b"><path d="M693.5142,179.6404h0c-1.3977-.807-3.2894-.3356-4.1046,1.0762-12,20.7846-24,41.5692-36,62.3538-.8069,1.3977-.3356,3.2894,1.0763,4.1046h0c1.3977.8069,3.2894.3356,4.1046-1.0762,12-20.7846,24-41.5692,36-62.3538,1.9342-3.3501-3.2487-6.3749-5.1808-3.0283-12,20.7846-24,41.5692-36,62.3538l4.1046-1.0763h0c.3588,1.3682.7175,2.7364,1.0763,4.1046,12-20.7846,24-41.5692,36-62.3538l-4.1046,1.0763h0c3.3501,1.9342,6.3749-3.2486,3.0283-5.1808Z"/><path d="M826.3596,312.4859h0c-.813-1.4082-2.7042-1.8848-4.1046-1.0763-20.7846,12-41.5692,24-62.3538,36-1.4081.813-1.8847,2.7042-1.0763,4.1046h0c.813,1.4082,2.7042,1.8848,4.1046,1.0763,20.7846-12,41.5692-24,62.3538-36,3.343-1.9301.3251-7.1169-3.0283-5.1808-20.7846,12-41.5692,24-62.3538,36l4.1046,1.0763h0c-.3588,1.3682-.7175,2.7364-1.0763,4.1046,20.7846-12,41.5692-24,62.3538-36l-4.1046-1.0763h0c1.9301,3.343,7.1169.3251,5.1808-3.0283Z"/><path d="M875,494h0c0-1.6218-1.3745-3-3-3-24,0-48,0-72,0-1.6217,0-3,1.3745-3,3h0c0,1.6218,1.3745,3,3,3,24,0,48,0,72,0,3.8607,0,3.8671-6,0-6-24,0-48,0-72,0l3,3h0c-1,1-2,2-3,3,24,0,48,0,72,0l-3-3h0c0,3.8607,6,3.8671,6,0Z"/><path d="M826.3596,675.5142h0c.8069-1.3977.3356-3.2894-1.0763-4.1046-20.7846-12-41.5692-24-62.3538-36-1.3977-.8069-3.2894-.3356-4.1046,1.0763h0c-.8069,1.3977-.3356,3.2894,1.0763,4.1046,20.7846,12,41.5692,24,62.3538,36,3.3501,1.9342,6.3749-3.2487,3.0283-5.1808-20.7846-12-41.5692-24-62.3538-36l1.0763,4.1046h0c-1.3682.3587-2.7364.7175-4.1046,1.0762,20.7846,12,41.5692,24,62.3538,36l-1.0763-4.1046h0c-1.9342,3.3501,3.2487,6.3749,5.1808,3.0283Z"/><path d="M197.6404,675.5141h0c.813,1.4082,2.7042,1.8848,4.1046,1.0763,20.7846-12,41.5692-24,62.3538-36,1.4081-.813,1.8847-2.7042,1.0763-4.1046h0c-.813-1.4082-2.7042-1.8848-4.1046-1.0763-20.7846,12-41.5692,24-62.3538,36-3.343,1.9301-.3251,7.1169,3.0283,5.1808,20.7846-12,41.5692-24,62.3538-36l-4.1046-1.0763h0c.3588-1.3682.7175-2.7364,1.0763-4.1046-20.7846,12-41.5692,24-62.3538,36l4.1046,1.0763h0c-1.9301-3.343-7.1169-.3251-5.1808,3.0283Z"/><path d="M149,494h0c0,1.6218,1.3745,3,3,3,24,0,48,0,72,0,1.6217,0,3-1.3745,3-3h0c0-1.6218-1.3745-3-3-3-24,0-48,0-72,0-3.8607,0-3.8671,6,0,6,24,0,48,0,72,0l-3-3h0c1-1,2-2,3-3-24,0-48,0-72,0l3,3h0c0-3.8607-6-3.8671-6,0Z"/><path d="M197.6404,312.4858h0c-.8069,1.3977-.3356,3.2894,1.0763,4.1046,20.7846,12,41.5692,24,62.3538,36,1.3977.8069,3.2894.3356,4.1046-1.0763h0c.8069-1.3977.3356-3.2894-1.0763-4.1046-20.7846-12-41.5692-24-62.3538-36-3.3501-1.9342-6.3749,3.2487-3.0283,5.1808,20.7846,12,41.5692,24,62.3538,36l-1.0763-4.1046h0c1.3682-.3587,2.7364-.7175,4.1046-1.0762-20.7846-12-41.5692-24-62.3538-36l1.0763,4.1046h0c1.9342-3.3501-3.2487-6.3749-5.1808-3.0283Z"/><path d="M330.4859,179.6404h0c-1.4081.813-1.8847,2.7042-1.0763,4.1046,12,20.7846,24,41.5692,36,62.3538.813,1.4081,2.7042,1.8847,4.1046,1.0763h0c1.4081-.813,1.8847-2.7042,1.0763-4.1046-12-20.7846-24-41.5692-36-62.3538-1.9301-3.343-7.1169-.3251-5.1808,3.0283,12,20.7846,24,41.5692,36,62.3538l1.0763-4.1046h0c1.3682.3588,2.7364.7175,4.1046,1.0763-12-20.7846-24-41.5692-36-62.3538l-1.0763,4.1046h0c3.343-1.9301.3251-7.1169-3.0283-5.1808Z"/><path d="M512,131h0c-1.6217,0-3,1.3745-3,3v72c0,1.6217,1.3745,3,3,3h0c1.6217,0,3-1.3745,3-3v-72c0-3.8607-6-3.8671-6,0v72l3-3h0l3,3v-72l-3,3h0c3.8607,0,3.8671-6,0-6Z"/></g><g id="c"><path d="M440,854h144c0,19.869-16.131,36-36,36h-72.0001c-19.8689,0-36-16.131-36-36h0Z" style="fill:#fff; stroke:#000; stroke-miterlimit:10; stroke-width:8px;"/><rect x="404" y="782" width="216" height="72" rx="28.9039" ry="28.9039" style="fill:#fff; stroke:#000; stroke-miterlimit:10; stroke-width:8px;"/><rect x="404" y="710" width="216" height="72" rx="28.9039" ry="28.9039" style="fill:#fff; stroke:#000; stroke-miterlimit:10; stroke-width:8px;"/><path d="M728,494c0-118.1059-94.7905-214.0722-212.4438-215.9713-120.8548-1.9508-219.1989,94.4505-219.5552,215.3205-.2365,80.221,43.2632,150.2977,107.999,187.7469h0c0,15.9632,12.9407,28.9039,28.9039,28.9039h158.1922c15.9632,0,28.9039-12.9407,28.9039-28.9039h0c64.5607-37.3479,108-107.147,108-187.0961Z" style="fill:none; stroke:#000; stroke-miterlimit:10; stroke-width:8px;"/><g id="d"><path d="M747,513c0-118.1059-94.7905-214.0722-212.4438-215.9713-120.8548-1.9508-219.1989,94.4505-219.5552,215.3205-.2365,80.221,43.2632,150.2977,107.999,187.7469h0c0,15.9632,12.9407,28.9039,28.9039,28.9039h158.1922c15.9632,0,28.9039-12.9407,28.9039-28.9039h0c64.5607-37.3479,108-107.147,108-187.0961Z" style="fill:#ffffa8; mix-blend-mode:multiply;"/></g></g></g></g></svg>