<?xml version="1.0" encoding="UTF-8"?><svg xmlns="http://www.w3.org/2000/svg" viewBox="0 0 1024 1024"><g style="isolation:isolate;"><g id="a"><g id="b"><path d="M698.0566,171.8692h0c-5.5907-3.2278-13.1578-1.3424-16.4183,4.305-12,20.7846-24,41.5692-36,62.3538-3.2278,5.5907-1.3424,13.1578,4.305,16.4183h0c5.5907,3.2278,13.1578,1.3424,16.4183-4.305,12-20.7846,24-41.5692,36-62.3538,7.7367-13.4003-12.9946-25.4997-20.7233-12.1133-12,20.7846-24,41.5692-36,62.3538,5.4728-1.435,10.9455-2.87,16.4183-4.305h0c1.435,5.4728,2.87,10.9455,4.305,16.4183,12-20.7846,24-41.5692,36-62.3538-5.4728,1.435-10.9455,2.87-16.4183,4.305h0c13.4003,7.7367,25.4997-12.9946,12.1133-20.7233Z"/><path d="M834.1308,307.9434h0c-3.252-5.6326-10.8169-7.539-16.4183-4.305-20.7846,12-41.5692,24-62.3538,36-5.6326,3.252-7.539,10.8169-4.305,16.4183h0c3.252,5.6326,10.8169,7.539,16.4183,4.305,20.7846-12,41.5692-24,62.3538-36,13.372-7.7203,1.3003-28.4676-12.1133-20.7233-20.7846,12-41.5692,24-62.3538,36,5.4728,1.435,10.9455,2.87,16.4183,4.305h0c-1.435,5.4728-2.87,10.9455-4.305,16.4183,20.7846-12,41.5692-24,62.3538-36-5.4728-1.435-10.9455-2.87-16.4183-4.305h0c7.7203,13.372,28.4676,1.3003,20.7233-12.1133Z"/><path d="M884,494h0c0-6.487-5.498-12-12-12-24,0-48,0-72,0-6.487,0-12,5.498-12,12h0c0,6.487,5.498,12,12,12,24,0,48,0,72,0,15.4429,0,15.4684-24,0-24-24,0-48,0-72,0l12,12h0c-4,4-8,8-12,12,24,0,48,0,72,0l-12-12h0c0,15.4429,24,15.4684,24,0Z"/><path d="M834.1308,680.0566h0c3.2278-5.5907,1.3424-13.1578-4.305-16.4183-20.7846-12-41.5692-24-62.3538-36-5.5907-3.2278-13.1578-1.3424-16.4183,4.305h0c-3.2278,5.5907-1.3424,13.1578,4.305,16.4183,20.7846,12,41.5692,24,62.3538,36,13.4003,7.7367,25.4997-12.9946,12.1133-20.7233-20.7846-12-41.5692-24-62.3538-36,1.435,5.4728,2.87,10.9455,4.305,16.4183h0c-5.4728,1.435-10.9455,2.87-16.4183,4.305,20.7846,12,41.5692,24,62.3538,36-1.435-5.4728-2.87-10.9455-4.305-16.4183h0c-7.7367,13.4003,12.9946,25.4997,20.7233,12.1133Z"/><path d="M189.8692,680.0566h0c3.252,5.6326,10.8169,7.539,16.4183,4.305,20.7846-12,41.5692-24,62.3538-36,5.6326-3.252,7.539-10.8169,4.305-16.4183h0c-3.252-5.6326-10.8169-7.539-16.4183-4.305-20.7846,12-41.5692,24-62.3538,36-13.372,7.7203-1.3003,28.4676,12.1133,20.7233,20.7846-12,41.5692-24,62.3538-36-5.4728-1.435-10.9455-2.87-16.4183-4.305h0c1.435-5.4728,2.87-10.9455,4.305-16.4183-20.7846,12-41.5692,24-62.3538,36,5.4728,1.435,10.9455,2.87,16.4183,4.305h0c-7.7203-13.372-28.4676-1.3003-20.7233,12.1133Z"/><path d="M140,494h0c0,6.487,5.498,12,12,12,24,0,48,0,72,0,6.487,0,12-5.498,12-12h0c0-6.487-5.498-12-12-12-24,0-48,0-72,0-15.4429,0-15.4684,24,0,24,24,0,48,0,72,0l-12-12h0c4-4,8-8,12-12-24,0-48,0-72,0l12,12h0c0-15.4429-24-15.4684-24,0Z"/><path d="M189.8692,307.9434h0c-3.2278,5.5907-1.3424,13.1578,4.305,16.4183,20.7846,12,41.5692,24,62.3538,36,5.5907,3.2278,13.1578,1.3424,16.4183-4.305h0c3.2278-5.5907,1.3424-13.1578-4.305-16.4183-20.7846-12-41.5692-24-62.3538-36-13.4003-7.7367-25.4997,12.9946-12.1133,20.7233,20.7846,12,41.5692,24,62.3538,36l-4.305-16.4183h0c5.4728-1.435,10.9455-2.87,16.4183-4.305-20.7846-12-41.5692-24-62.3538-36l4.305,16.4183h0c7.7367-13.4003-12.9946-25.4997-20.7233-12.1133Z"/><path d="M325.9434,171.8692h0c-5.6326,3.252-7.539,10.8169-4.305,16.4183,12,20.7846,24,41.5692,36,62.3538,3.252,5.6326,10.8169,7.539,16.4183,4.305h0c5.6326-3.252,7.539-10.8169,4.305-16.4183-12-20.7846-24-41.5692-36-62.3538-7.7203-13.372-28.4676-1.3003-20.7233,12.1133,12,20.7846,24,41.5692,36,62.3538l4.305-16.4183h0c5.4728,1.435,10.9455,2.87,16.4183,4.305-12-20.7846-24-41.5692-36-62.3538l-4.305,16.4183h0c13.372-7.7203,1.3003-28.4676-12.1133-20.7233Z"/><path d="M512,122h0c-6.487,0-12,5.498-12,12v72c0,6.487,5.498,12,12,12h0c6.487,0,12-5.498,12-12v-72c0-15.4429-24-15.4684-24,0v72l12-12h0l12,12v-72l-12,12h0c15.4429,0,15.4684-24,0-24Z"/></g><g id="c"><path d="M440,854h144c0,19.869-16.131,36-36,36h-72.0001c-19.8689,0-36-16.131-36-36h0Z" style="fill:#fff; stroke:#000; stroke-miterlimit:10; stroke-width:16px;"/><rect x="404" y="782" width="216" height="72" rx="28.9039" ry="28.9039" style="fill:#fff; stroke:#000; stroke-miterlimit:10; stroke-width:16px;"/><rect x="404" y="710" width="216" height="72" rx="28.9039" ry="28.9039" style="fill:#fff; stroke:#000; stroke-miterlimit:10; stroke-width:16px;"/><g id="d"><path d="M747,513c0-118.1059-94.7905-214.0722-212.4438-215.9713-120.8548-1.9508-219.1989,94.4505-219.5552,215.3205-.2365,80.221,43.2632,150.2977,107.999,187.7469h0c0,15.9632,12.9407,28.9039,28.9039,28.9039h158.1922c15.9632,0,28.9039-12.9407,28.9039-28.9039h0c64.5607-37.3479,108-107.147,108-187.0961Z" style="fill:#ffffa8; mix-blend-mode:multiply;"/></g><path d="M728,494c0-118.1059-94.7905-214.0722-212.4438-215.9713-120.8548-1.9508-219.1989,94.4505-219.5552,215.3205-.2365,80.221,43.2632,150.2977,107.999,187.7469h0c0,15.9632,12.9407,28.9039,28.9039,28.9039h158.1922c15.9632,0,28.9039-12.9407,28.9039-28.9039h0c64.5607-37.3479,108-107.147,108-187.0961Z" style="fill:none; stroke:#000; stroke-miterlimit:10; stroke-width:16px;"/></g></g></g></svg>